<?xml version="1.0" encoding="utf-8"?>
<!-- Generator: Adobe Illustrator 22.0.1, SVG Export Plug-In . SVG Version: 6.00 Build 0)  -->
<svg version="1.1" id="Layer_1" xmlns="http://www.w3.org/2000/svg" xmlns:xlink="http://www.w3.org/1999/xlink" x="0px" y="0px"
	 viewBox="0 0 419.2 99.3" style="enable-background:new 0 0 419.2 99.3;" xml:space="preserve">
<style type="text/css">
	.st0{fill:#FFFFFF;}
	.st1{fill:#9CA73A;}
</style>
<path class="st0" d="M159.3,43.7c-2.1,5.3-6.5,9.4-11.9,11.1c-1.5,0.6-3.1,0.9-4.7,0.9c-4.3,0.1-8.5-1.3-12-3.8v-1
	c4.4,0.3,8.7-1.6,11.4-5c2.6-3,3.9-7,3.9-11.9c0-7.5-2.4-12.3-7.2-14.5c-1.6-0.7-3.3-1-5-1h-6.3v60c0,1.7,0.6,3.3,1.8,4.6
	c1.1,1.2,2.6,1.9,4.2,1.9h1.2v1h-28.7v-1h1.2c1.6,0,3.1-0.7,4.2-1.9c1.2-1.2,1.8-2.9,1.8-4.6V21.2c-0.1-2.1-1.3-4.1-3.2-5.1
	c-0.8-0.5-1.8-0.8-2.8-0.8h-1.2v-1h31.5c11.4,0,18.7,3.9,21.9,11.8c1,2.8,1.6,5.7,1.5,8.6C161,37.8,160.4,40.8,159.3,43.7z"/>
<path class="st0" d="M222.8,85h0.9v1h-30.1v-1h0.9c1.2,0.1,2.3-0.4,3.1-1.4c0.6-0.7,0.9-1.7,1-2.6c0-0.8-0.2-1.7-0.5-2.5l-4.6-12.6
	h-22.1l-4.9,12.6c-0.3,0.8-0.5,1.7-0.5,2.5c0.1,0.9,0.4,1.8,1,2.6c0.7,1,1.9,1.5,3.1,1.4h0.8v1h-20.2v-1h0.9c1.6,0,3.1-0.5,4.3-1.4
	c1.6-1.1,2.8-2.6,3.6-4.3l21.8-53.7c3-6.8,4.5-11.3,4.7-13.4h0.9l28,66.9c0.8,1.8,2,3.3,3.6,4.5C219.6,84.4,221.2,85,222.8,85z
	 M172.9,61.6h18.9l-9.2-25.2L172.9,61.6z"/>
<path class="st0" d="M252.7,18.8h-4.3v59.8c-0.1,2.3,1.1,4.4,3,5.6c0.9,0.5,1.9,0.8,3,0.8h1.2v1h-28.6v-1h1.2c2.2,0,4.2-1.2,5.2-3.2
	c0.5-1,0.8-2.1,0.9-3.2V21.7c0-1.7-0.7-3.3-1.8-4.6c-1.1-1.2-2.6-1.9-4.2-1.9h-1.2v-1h32.4c6.1,0,11.3,1.4,15.5,4.3
	c2.2,1.5,4,3.6,5.1,6c1.3,2.7,1.9,5.7,1.9,8.7c0,3.1-0.5,6.1-1.6,9c-1.1,2.8-2.9,5.2-5.2,7.1c-2.5,2.1-5.5,3.4-8.7,3.7
	c3.6,1.3,6.9,4.3,9.6,9C282.7,74,287.7,81,291,83.3c1.8,1.1,4,1.7,6.1,1.7v1h-9.2c-4.6,0.1-9.2-0.7-13.4-2.4
	c-3.7-1.7-6.8-4.6-8.8-8.3c-1.1-2-2.6-5-4.3-9c-1.8-4-2.9-6.9-3.5-8.6c-1.7-4.1-3.8-6.4-6.4-6.9v-1h2.9c2.8,0,5.4-1,7.5-2.8
	c2.2-1.8,3.6-4.8,4.4-9c0.2-1.1,0.3-2.3,0.4-3.4c0-5.6-1-9.7-3.1-12.2c-1.9-2.4-4.9-3.8-8-3.9L252.7,18.8z"/>
<path class="st0" d="M298.2,85c1.6,0,3.1-0.7,4.2-1.9c1.2-1.2,1.8-2.9,1.8-4.6V21.7c0-1.7-0.7-3.3-1.8-4.6c-1.1-1.2-2.6-1.9-4.2-1.9
	H297v-1h28.7l-0.1,1h-1.1c-1.6,0-3.2,0.7-4.2,1.9c-1.2,1.2-1.8,2.9-1.8,4.6v59.9h12.4c4.3,0.1,8.4-1.4,11.6-4.3
	c3.1-2.9,5.4-6.9,7-12.2h0.9L345.9,86H297v-1H298.2z"/>
<path class="st0" d="M418.3,85h0.9v1h-30.1v-1h0.9c1.2,0.1,2.4-0.4,3.1-1.4c0.6-0.8,1-1.7,1-2.6c0-0.8-0.2-1.7-0.5-2.5l-4.6-12.6
	h-22.1l-4.9,12.6c-0.3,0.8-0.5,1.7-0.5,2.5c0.1,0.9,0.4,1.8,1,2.6c0.8,1,1.9,1.5,3.2,1.4h0.8v1h-20.2v-1h0.9c1.6,0,3.1-0.5,4.3-1.4
	c1.6-1.1,2.8-2.6,3.6-4.3l21.8-53.7c3-6.8,4.5-11.3,4.7-13.4h0.9l28,66.9c0.8,1.8,2,3.3,3.6,4.5C415.2,84.4,416.7,85,418.3,85z
	 M368.4,61.6h18.9l-9.1-25.2L368.4,61.6z"/>
<polyline class="st0" points="23.8,85.9 29,73.8 12.8,73.8 12.8,25.6 55.2,25.6 68.3,0 46.5,12.3 0,12.3 0,86.1 23.8,85.9 "/>
<polyline class="st1" points="73.5,13.4 68.2,25.6 84.4,25.6 84.4,73.8 42.1,73.8 28.9,99.3 50.7,87 97.3,87 97.3,13.3 73.5,13.4 
	"/>
<polygon class="st0" points="67.8,63.9 66.9,63.9 66.9,61.4 67.8,61.4 67.8,63.9 "/>
<polygon class="st0" points="33.2,63.9 32.3,63.9 32.3,61.4 33.2,61.4 33.2,63.9 "/>
<rect x="51.4" y="34.3" class="st0" width="1.7" height="1.8"/>
<rect x="30.8" y="66.5" class="st0" width="38.4" height="0.9"/>
<polygon class="st0" points="65.6,63.9 64.3,63.9 64.3,61.4 65.6,61.4 65.6,63.9 "/>
<polygon class="st0" points="63.1,63.9 61.4,63.9 61.4,61.4 63.1,61.4 63.1,63.9 "/>
<polygon class="st0" points="60.2,63.9 58.6,63.9 58.6,61.4 60.2,61.4 60.2,63.9 "/>
<polygon class="st0" points="57.3,63.9 55.5,63.9 55.5,61.4 57.3,61.4 57.3,63.9 "/>
<polygon class="st0" points="54.3,63.9 52.4,63.9 52.4,61.4 54.3,61.4 54.3,63.9 "/>
<polygon class="st0" points="51.1,63.9 49,63.9 49,61.4 51.1,61.4 51.1,63.9 "/>
<polygon class="st0" points="47.7,63.9 45.8,63.9 45.8,61.4 47.7,61.4 47.7,63.9 "/>
<polygon class="st0" points="44.6,63.9 42.8,63.9 42.8,61.4 44.6,61.4 44.6,63.9 "/>
<polygon class="st0" points="41.5,63.9 39.9,63.9 39.9,61.4 41.5,61.4 41.5,63.9 "/>
<polygon class="st0" points="38.7,63.9 37,63.9 37,61.4 38.7,61.4 38.7,63.9 "/>
<polygon class="st0" points="35.8,63.9 34.5,63.9 34.5,61.4 35.8,61.4 35.8,63.9 "/>
<path class="st0" d="M54.4,58.8h-8.6V58h8.6L54.4,58.8L54.4,58.8z M54.4,57.3h-8.6v-0.8h8.6C54.4,56.5,54.4,57.3,54.4,57.3z"/>
<path class="st0" d="M61.8,58.8h-5.7V58h5.6L61.8,58.8L61.8,58.8z M61.8,57.3h-5.7v-0.8h5.6L61.8,57.3L61.8,57.3z"/>
<path class="st0" d="M66.8,58.8h-3.3V58h3.3V58.8L66.8,58.8z M66.8,57.3h-3.3v-0.8h3.3V57.3z"/>
<path class="st0" d="M36.5,58.8h-3.3V58h3.3V58.8L36.5,58.8z M36.5,57.3h-3.3v-0.8h3.3V57.3z"/>
<path class="st0" d="M51.5,39.1c1.8,4.8,2.7,10,2.8,15.1c0,0.5,0,0.9,0,1.4v0.1h-8.5v-0.1c0-0.5,0-0.9,0-1.4
	c0.1-5.2,1-10.3,2.7-15.1H51.5z"/>
<path class="st0" d="M55.1,39.1c4,4.6,6.3,10.4,6.6,16.5v0.1h-5.6v-0.1c0-0.3,0-0.6,0-0.8c0.1-5.4-1.1-10.8-3.5-15.7L55.1,39.1z"/>
<path class="st0" d="M57.8,39.1c5.2,4,8.5,10,9,16.5v0.1h-3.3v-0.1c-0.3-6.3-3.1-12.2-7.7-16.5L57.8,39.1z"/>
<rect x="30.8" y="64.9" class="st0" width="38.4" height="0.9"/>
<rect x="30.8" y="59.5" class="st0" width="38.4" height="0.9"/>
<rect x="44.7" y="34.3" class="st0" width="1.6" height="1.8"/>
<rect x="46.9" y="34.3" class="st0" width="1.6" height="1.8"/>
<rect x="53.8" y="34.3" class="st0" width="1.5" height="1.8"/>
<rect x="49.1" y="34.3" class="st0" width="1.7" height="1.8"/>
<path class="st0" d="M48.2,33.6h3.6v-1.8c-0.1-1-1-1.7-2-1.6c-0.9,0.1-1.6,0.9-1.6,1.8L48.2,33.6z"/>
<path class="st0" d="M53.2,32.8c0-0.6,0.4-1,1-1c0.6,0,1.1,0.5,1,1.1c0,0,0,0,0,0v0.8h-2.1L53.2,32.8z"/>
<path class="st0" d="M44.7,32.8c0-0.6,0.4-1,1-1c0.6,0,1.1,0.5,1,1.1c0,0,0,0,0,0v0.8h-2.1L44.7,32.8z"/>
<path class="st0" d="M51.1,37.3l-0.2-0.5h-1.8l-0.1,0.5L51.1,37.3z"/>
<path class="st0" d="M51.4,38.4l-0.2-0.5h-2.4l-0.2,0.5H51.4z"/>
<path class="st0" d="M53.7,37.3l-0.5-0.5h-1.6l0.2,0.5H53.7z"/>
<path class="st0" d="M54.7,38.4l-0.5-0.5h-2.1l0.3,0.5H54.7z"/>
<path class="st0" d="M56.1,37.3l-0.6-0.5h-1.5l0.5,0.5H56.1z"/>
<path class="st0" d="M55.4,38.4l-0.5-0.5h1.8l0.6,0.5H55.4z"/>
<path class="st0" d="M44.2,39.1c-4.6,4.3-7.4,10.2-7.7,16.5v0.1h-3.3v-0.1c0.5-6.5,3.8-12.5,9-16.5H44.2z"/>
<path class="st0" d="M44,58.8h-5.7V58H44V58.8L44,58.8z M44,57.3h-5.7v-0.8H44V57.3z"/>
<path class="st0" d="M47.5,39.1c-2.4,4.9-3.6,10.2-3.5,15.7c0,0.3,0,0.5,0,0.8v0.1h-5.6v-0.1c0.3-6.1,2.6-11.9,6.7-16.5H47.5z"/>
<path class="st0" d="M47.7,38.4l0.3-0.5h-2.1l-0.5,0.5L47.7,38.4z"/>
<path class="st0" d="M48.2,37.3l0.2-0.5h-1.7c0,0-0.2,0.2-0.5,0.5H48.2z"/>
<path class="st0" d="M44.7,38.4l0.5-0.5h-1.8l-0.6,0.5H44.7z"/>
<path class="st0" d="M45.6,37.3l0.5-0.5h-1.5L44,37.3H45.6z"/>
</svg>
