<?xml version="1.0" encoding="utf-8"?>
<!-- Generator: Adobe Illustrator 22.0.0, SVG Export Plug-In . SVG Version: 6.00 Build 0)  -->
<svg version="1.1" id="Camada_1" xmlns="http://www.w3.org/2000/svg" xmlns:xlink="http://www.w3.org/1999/xlink" x="0px" y="0px"
	 viewBox="0 0 576 512" style="enable-background:new 0 0 576 512;" xml:space="preserve">
<style type="text/css">
	.st0{fill:#DB0000;}
</style>
<path class="st0" d="M248.7,204.7l6.6,112c0.4,6.3,5.6,11.3,12,11.3h41.4c6.4,0,11.6-5,12-11.3l6.6-112c0.4-6.9-5.1-12.7-12-12.7
	h-54.5C253.8,192,248.3,197.8,248.7,204.7L248.7,204.7z M330,384c0,23.2-18.8,42-42,42s-42-18.8-42-42s18.8-42,42-42
	S330,360.8,330,384z M329.6,24c-18.4-32-64.7-32-83.2,0L6.5,440c-18.4,31.9,4.6,72,41.6,72h479.9c36.9,0,60-40,41.6-72L329.6,24
	L329.6,24z M53.2,455L282.8,57c2.3-4,8.1-4,10.4,0l229.6,398c2.3,4-0.6,9-5.2,9H58.4C53.8,464,50.9,459,53.2,455L53.2,455z"/>
</svg>
