<?xml version="1.0" encoding="utf-8"?>
<!-- Generator: Adobe Illustrator 22.0.0, SVG Export Plug-In . SVG Version: 6.00 Build 0)  -->
<svg version="1.1" id="Camada_1" xmlns="http://www.w3.org/2000/svg" xmlns:xlink="http://www.w3.org/1999/xlink" x="0px" y="0px"
	 viewBox="0 0 1864.9 438.7" style="enable-background:new 0 0 1864.9 438.7;" xml:space="preserve">
<style type="text/css">
	.st0{fill:#012B53;}
	.st1{fill:#9CA53A;}
</style>
<g>
	<path class="st0" d="M712,190.1c-9.3,22.2-26.4,37.5-51.4,46c-7.3,2.6-14.2,3.8-20.4,3.8c-19.3,0-36.6-5.3-51.9-15.8v-4.3
		c20.4,0.6,36.9-6.4,49.4-20.9c11.2-12.5,16.7-28.8,16.7-49c0-31-10.3-51-31-60.1c-6.5-2.8-13.8-4.3-21.6-4.3h-27.4v249.3
		c0,7.4,2.6,13.7,7.8,19s11.3,7.9,18.4,7.9h5.3v4.3H481.7v-4.3h5.3c7.1,0,13.1-2.6,18.2-7.9c5-5.3,7.7-11.6,8-19v-238
		c-1.1-9.7-5.7-16.8-13.9-21.3c-3.8-2.3-7.9-3.4-12.3-3.4h-5.3v-4.3h136.4c49.3,0,80.8,16.3,94.7,49c4.4,10.8,6.5,22.8,6.5,36
		C719.3,166,716.9,178.4,712,190.1z"/>
	<path class="st0" d="M995.4,361.8h3.7v4.3H868.8v-4.3h3.7c6,0,10.4-1.9,13.3-5.8c2.9-3.8,4.3-7.5,4.3-10.9s-0.7-6.8-2-10.2
		l-20-52.4h-95.5L751.2,335c-1.4,3.7-2,7.2-2,10.4c0,3.3,1.4,6.8,4.3,10.7c2.9,3.8,7.4,5.8,13.7,5.8h3.3v4.3h-87.4v-4.3h3.7
		c6.3,0,12.5-2,18.8-6S717,346,721.1,338l94.3-222.9C828.2,87,835,68.4,835.8,59.3h3.7l121.3,277.9c4.1,8.2,9.3,14.4,15.5,18.5
		C982.4,359.8,988.8,361.8,995.4,361.8z M779.3,264.7H861l-39.6-104.8L779.3,264.7z"/>
	<path class="st0" d="M1116.2,86.5h-17.6c-0.5,0-1,0-1.2,0v248.4c0.3,10.5,4.6,18.3,13.1,23.4c4.1,2.3,8.4,3.4,13.1,3.4h5.3v4.3
		h-124.1v-4.3h5.3c9.8,0,17.3-4.4,22.5-13.2c2.2-4,3.4-8.4,3.7-13.2V98.9c-0.3-7.4-2.9-13.7-8-19c-5-5.3-11.1-7.9-18.2-7.9h-5.3
		v-4.3h140c26.4,0,48.7,6,67,17.9c9.3,6,16.6,14.3,22.1,24.9c5.4,10.7,8.2,22.7,8.2,36.2s-2.2,25.9-6.7,37.3
		c-4.5,11.4-12,21.3-22.5,29.8s-23.1,13.6-37.8,15.3c15.8,5.4,29.7,17.9,41.7,37.5c29.4,49.2,51.2,78.4,65.3,87.8
		c7.1,4.5,15.9,7,26.5,7.2v4.3h-40c-23.1,0-42.5-3.3-58-10s-28.2-18.1-38-34.3c-4.9-8.2-11.2-20.7-18.8-37.3s-12.7-28.5-15.1-35.6
		c-7.3-17-16.6-26.6-27.8-28.6v-4.3h12.7c12.3,0,23.1-3.8,32.5-11.5s15.7-20.2,19-37.5c1.1-6,1.6-10.7,1.6-14.1
		c0-23.3-4.5-40.1-13.5-50.5s-20.6-15.7-34.7-16C1125.7,86.5,1121.6,86.5,1116.2,86.5z"/>
	<path class="st0" d="M1313.4,361.8c7.1,0,13.1-2.6,18.2-7.9c5-5.3,7.7-11.6,8-19v-236c-0.3-7.4-2.9-13.7-8-19
		c-5-5.3-11.1-7.9-18.2-7.9h-5.3v-4.3h124.1l-0.4,4.3h-4.9c-7.1,0-13.2,2.6-18.4,7.9c-5.2,5.3-7.8,11.6-7.8,19v248.9h53.5
		c19.9,0,36.5-6,50-17.9s23.5-28.8,30-50.7h4.1l-18.8,86.9h-211.5v-4.3H1313.4z"/>
	<path class="st0" d="M1858.9,361.8h3.7v4.3h-130.3v-4.3h3.7c6,0,10.4-1.9,13.3-5.8c2.9-3.8,4.3-7.5,4.3-10.9s-0.7-6.8-2-10.2
		l-20-52.4h-95.5l-21.2,52.4c-1.4,3.7-2,7.2-2,10.4c0,3.3,1.4,6.8,4.3,10.7c2.9,3.8,7.4,5.8,13.7,5.8h3.3v4.3h-87.4v-4.3h3.7
		c6.3,0,12.5-2,18.8-6s11.4-9.9,15.5-17.9l94.3-222.9c12.8-28.1,19.6-46.7,20.4-55.8h3.7l121,277.9c4.1,8.2,9.3,14.4,15.5,18.5
		C1846,359.8,1852.4,361.8,1858.9,361.8z M1642.9,264.7h81.7L1685,159.9L1642.9,264.7z"/>
</g>
<polyline class="st0" points="105.2,377.7 128.3,324.5 57.4,324.5 57.4,113.5 242.8,113.5 300.4,1.5 204.9,55.5 1.2,55.5 1.2,378.2 
	105.2,377.7 "/>
<polyline class="st1" points="323,60.2 300,113.4 370.9,113.4 370.9,324.4 185.5,324.4 127.9,436.4 223.3,382.5 427.1,382.5 
	427.1,59.7 323,60.2 "/>
<g>
	<polygon class="st0" points="298.2,281.2 294,281.2 294,270.5 298.2,270.5 	"/>
	<polygon class="st0" points="146.7,281.2 142.5,281.2 142.5,270.5 146.7,270.5 	"/>
	<rect x="226.3" y="151.8" class="st0" width="7.5" height="8"/>
	<rect x="136.1" y="292.8" class="st0" width="168.3" height="3.9"/>
	<polygon class="st0" points="288.6,281.2 282.9,281.2 282.9,270.5 288.6,270.5 	"/>
	<polygon class="st0" points="277.4,281.2 270.2,281.2 270.2,270.5 277.4,270.5 	"/>
	<polygon class="st0" points="264.7,281.2 257.6,281.2 257.6,270.5 264.7,270.5 	"/>
	<polygon class="st0" points="252.2,281.2 244.4,281.2 244.4,270.5 252.2,270.5 	"/>
	<polygon class="st0" points="238.9,281.2 230.5,281.2 230.5,270.5 238.9,270.5 	"/>
	<polygon class="st0" points="225,281.2 215.6,281.2 215.6,270.5 225,270.5 	"/>
	<polygon class="st0" points="210.1,281.2 201.7,281.2 201.7,270.5 210.1,270.5 	"/>
	<polygon class="st0" points="196.3,281.2 188.5,281.2 188.5,270.5 196.3,270.5 	"/>
	<polygon class="st0" points="183.1,281.2 176,281.2 176,270.5 183.1,270.5 	"/>
	<polygon class="st0" points="170.5,281.2 163.3,281.2 163.3,270.5 170.5,270.5 	"/>
	<polygon class="st0" points="157.9,281.2 152.1,281.2 152.1,270.5 157.9,270.5 	"/>
	<path class="st0" d="M239.3,258.8h-37.6v-3.5h37.6V258.8L239.3,258.8z M239.3,252.4h-37.6v-3.5h37.6V252.4L239.3,252.4z"/>
	<path class="st0" d="M271.8,258.9h-24.7v-3.5h24.7V258.9L271.8,258.9z M271.8,252.3h-24.7v-3.5h24.7V252.3L271.8,252.3z"/>
	<path class="st0" d="M293.8,258.9h-14.4v-3.5h14.4V258.9L293.8,258.9z M293.8,252.3h-14.4v-3.5h14.4V252.3L293.8,252.3z"/>
	<path class="st0" d="M161.1,258.9h-14.4v-3.5h14.4V258.9L161.1,258.9z M161.1,252.3h-14.4v-3.5h14.4V252.3L161.1,252.3z"/>
	<path class="st0" d="M226.8,172.9c8.3,24.7,12.3,45.9,12.3,66.2c0,2,0,4.1-0.1,6.1v0.4l0,0h-37.3v-0.4c-0.1-2.2-0.1-4.1-0.1-6
		c0-20.8,4-42.7,11.9-66.2L226.8,172.9L226.8,172.9z"/>
	<path class="st0" d="M242.4,172.9c17.3,19.4,27.3,44.3,29,72.1v0.6l0,0h-24.5v-0.4c0-1.2,0-2.5,0-3.7c0-25.2-5.4-48.7-15.5-68.5h11
		V172.9z"/>
	<path class="st0" d="M254.5,172.9c22.7,17.5,36.7,43.2,39.3,72.2v0.5l0,0h-14.4v-0.4c-1.4-27.9-13.7-53.5-33.8-72.2L254.5,172.9z"
		/>
	<rect x="136.1" y="285.5" class="st0" width="168.3" height="3.9"/>
	<rect x="136.1" y="262.2" class="st0" width="168.3" height="3.9"/>
	<rect x="196.8" y="151.8" class="st0" width="7.1" height="8"/>
	<rect x="206.4" y="151.8" class="st0" width="7.2" height="8"/>
	<rect x="236.7" y="151.8" class="st0" width="6.8" height="8"/>
	<rect x="216.4" y="151.8" class="st0" width="7.3" height="8"/>
	<path class="st0" d="M212.2,148.6H228v-7.7c-0.4-4.1-3.8-7.3-7.9-7.3c-4.4,0-7.9,3.6-7.9,8.1V148.6z"/>
	<path class="st0" d="M234.3,144.9c0-2.7,2.1-4.5,4.6-4.5s4.6,2.1,4.6,4.7v3.5h-9.2V144.9z"/>
	<path class="st0" d="M196.8,144.9c0-2.7,2.1-4.5,4.6-4.5s4.6,2.1,4.6,4.7v3.5h-9.2L196.8,144.9z"/>
	<path class="st0" d="M224.8,164.9l-0.7-2.3H216c-0.1,0.5-0.3,1.3-0.6,2.2h9.4V164.9z"/>
	<path class="st0" d="M226.2,169.7c-0.2-0.8-0.5-1.6-0.7-2.3h-10.6c-0.2,0.8-0.5,1.5-0.7,2.3H226.2z"/>
	<path class="st0" d="M236.5,164.9c-1.3-1.3-2.1-2.3-2.1-2.3h-7.2l1.1,2.3H236.5z"/>
	<path class="st0" d="M240.6,169.7c-0.7-0.8-1.4-1.5-2.1-2.3h-9.1l1.1,2.3H240.6z"/>
	<path class="st0" d="M246.7,164.9c-1.7-1.4-2.7-2.3-2.7-2.3h-6.7c0.8,0.8,1.5,1.5,2.2,2.3H246.7z"/>
	<path class="st0" d="M243.7,169.7c-0.7-0.7-1.5-1.5-2.2-2.3h7.7c0.8,0.6,1.9,1.5,2.8,2.3H243.7z"/>
	<path class="st0" d="M194.9,172.9c-20.1,18.8-32.4,44.3-33.8,72.2v0.4h-14.4l0,0V245c2.6-29,16.6-54.7,39.3-72.2L194.9,172.9z"/>
	<path class="st0" d="M193.8,258.9h-24.7v-3.5h24.7V258.9L193.8,258.9z M193.8,252.3h-24.7v-3.5h24.7V252.3L193.8,252.3z"/>
	<path class="st0" d="M209,172.9c-10.1,19.9-15.5,43.3-15.5,68.5c0,1.1,0,2.4,0,3.7v0.4H169l0,0v-0.6c1.6-27.7,11.7-52.7,29-72.1h11
		V172.9z"/>
	<path class="st0" d="M210.1,169.7l1.1-2.3h-9.1c-0.7,0.7-1.4,1.5-2.1,2.3H210.1z"/>
	<path class="st0" d="M212.2,164.9l1.1-2.3h-7.4c0,0-0.7,0.9-2,2.3H212.2z"/>
	<path class="st0" d="M196.8,169.7c0.7-0.7,1.4-1.5,2.2-2.3h-7.7c-0.9,0.7-1.8,1.5-2.8,2.3H196.8z"/>
	<path class="st0" d="M200.9,164.9c0,0,1.5-1.5,2.2-2.3h-6.7c0,0-1,0.9-2.7,2.3H200.9z"/>
</g>
</svg>
