<svg xmlns="http://www.w3.org/2000/svg" viewBox="0 0 318.05 99.34"><defs><style>.cls-1{fill:#172b53;}.cls-2{fill:#9ca73a;}</style></defs><title>Para_horizontal</title><g id="Camada_2" data-name="Camada 2"><g id="Camada_1-2" data-name="Camada 1"><path class="cls-1" d="M146.38,46a12.49,12.49,0,0,1-7.85,7.32,9.2,9.2,0,0,1-3.12.61,13.23,13.23,0,0,1-7.92-2.51v-.68A9,9,0,0,0,135,47.43a11.55,11.55,0,0,0,2.55-7.79q0-7.38-4.74-9.55a7.91,7.91,0,0,0-3.3-.68h-4.18V69a4.23,4.23,0,0,0,1.18,3,3.73,3.73,0,0,0,2.8,1.25h.81V74H111.23v-.68H112a3.64,3.64,0,0,0,2.77-1.25A4.55,4.55,0,0,0,116,69V31.17a4.2,4.2,0,0,0-2.12-3.39,3.49,3.49,0,0,0-1.87-.54h-.81v-.68H132q11.28,0,14.46,7.79A16.57,16.57,0,0,1,146.38,46Z"/><path class="cls-1" d="M188.31,73.32h.56V74H169v-.68h.56a2.32,2.32,0,0,0,2-.91,3,3,0,0,0,.65-1.73,4.53,4.53,0,0,0-.31-1.63l-3.05-8.33H154.28L151,69a5,5,0,0,0-.31,1.66,3,3,0,0,0,.65,1.69,2.39,2.39,0,0,0,2.09.91h.5V74H140.63v-.68h.56a5.16,5.16,0,0,0,2.87-.95,7,7,0,0,0,2.37-2.85l14.4-35.44q2.93-6.71,3.12-8.88h.56L183,69.39a7.21,7.21,0,0,0,2.37,2.95A5.12,5.12,0,0,0,188.31,73.32Zm-33-15.45h12.47l-6-16.67Z"/><path class="cls-1" d="M208.08,29.54h-2.87V69a4.24,4.24,0,0,0,2,3.73,3.9,3.9,0,0,0,2,.54H210V74H191.07v-.68h.81a3.74,3.74,0,0,0,3.43-2.1,5,5,0,0,0,.56-2.1V31.51a4.55,4.55,0,0,0-1.22-3,3.64,3.64,0,0,0-2.77-1.25h-.81v-.68h21.38a17.72,17.72,0,0,1,10.22,2.85,9.93,9.93,0,0,1,3.37,4,12.92,12.92,0,0,1,1.25,5.76,16.58,16.58,0,0,1-1,5.93,11.54,11.54,0,0,1-3.43,4.74,10.69,10.69,0,0,1-5.77,2.44q3.61,1.29,6.36,6,6.73,11.72,10,14a7.51,7.51,0,0,0,4.05,1.15V74h-6.11a21.65,21.65,0,0,1-8.85-1.59,12.73,12.73,0,0,1-5.8-5.45q-1.12-2-2.87-5.93t-2.31-5.66q-1.68-4.07-4.24-4.54v-.68h1.93a7.42,7.42,0,0,0,5-1.83q2.15-1.83,2.9-6a13.87,13.87,0,0,0,.25-2.24q0-5.56-2.06-8a6.77,6.77,0,0,0-5.3-2.54Z"/><path class="cls-1" d="M238.18,73.32A3.64,3.64,0,0,0,241,72.06a4.55,4.55,0,0,0,1.21-3V31.51a4.55,4.55,0,0,0-1.21-3,3.64,3.64,0,0,0-2.77-1.25h-.81v-.68h18.95l-.06.68h-.75a3.73,3.73,0,0,0-2.81,1.25,4.24,4.24,0,0,0-1.18,3V71.08h8.16a10.84,10.84,0,0,0,7.63-2.85,17.08,17.08,0,0,0,4.58-8.06h.62L269.66,74H237.37v-.68Z"/><path class="cls-1" d="M317.49,73.32H318V74H298.17v-.68h.56a2.32,2.32,0,0,0,2-.91,3,3,0,0,0,.65-1.73A4.53,4.53,0,0,0,301.1,69L298,60.71H283.46L280.22,69a5,5,0,0,0-.31,1.66,3,3,0,0,0,.65,1.69,2.39,2.39,0,0,0,2.09.91h.5V74H269.81v-.68h.56a5.16,5.16,0,0,0,2.87-.95,7,7,0,0,0,2.37-2.85L290,34.08q2.93-6.71,3.12-8.88h.56l18.51,44.18a7.21,7.21,0,0,0,2.37,2.95A5.12,5.12,0,0,0,317.49,73.32Zm-33-15.45H297l-6-16.67Z"/><polyline class="cls-1" points="23.76 85.92 29.03 73.78 12.84 73.78 12.84 25.59 55.17 25.59 68.34 0 46.54 12.33 0 12.33 0 86.05 23.76 85.92"/><polyline class="cls-2" points="73.51 13.42 68.24 25.56 84.43 25.56 84.43 73.75 42.09 73.75 28.93 99.34 50.73 87.01 97.27 87.01 97.27 13.29 73.51 13.42"/><polygon class="cls-1" points="67.84 63.88 66.88 63.88 66.88 61.44 67.84 61.44 67.84 63.88 67.84 63.88"/><polygon class="cls-1" points="33.23 63.88 32.28 63.88 32.28 61.44 33.23 61.44 33.23 63.88 33.23 63.88"/><rect class="cls-1" x="51.42" y="34.33" width="1.72" height="1.84"/><rect class="cls-1" x="30.82" y="66.53" width="38.43" height="0.9"/><polygon class="cls-1" points="65.64 63.88 64.33 63.88 64.33 61.44 65.64 61.44 65.64 63.88 65.64 63.88"/><polygon class="cls-1" points="63.09 63.88 61.44 63.88 61.44 61.44 63.09 61.44 63.09 63.88 63.09 63.88"/><polygon class="cls-1" points="60.2 63.88 58.58 63.88 58.58 61.44 60.2 61.44 60.2 63.88 60.2 63.88"/><polygon class="cls-1" points="57.33 63.88 55.54 63.88 55.54 61.44 57.33 61.44 57.33 63.88 57.33 63.88"/><polygon class="cls-1" points="54.3 63.88 52.37 63.88 52.37 61.44 54.3 61.44 54.3 63.88 54.3 63.88"/><polygon class="cls-1" points="51.13 63.88 48.96 63.88 48.96 61.44 51.13 61.44 51.13 63.88 51.13 63.88"/><polygon class="cls-1" points="47.72 63.88 45.8 63.88 45.8 61.44 47.72 61.44 47.72 63.88 47.72 63.88"/><polygon class="cls-1" points="44.56 63.88 42.79 63.88 42.79 61.44 44.56 61.44 44.56 63.88 44.56 63.88"/><polygon class="cls-1" points="41.54 63.88 39.92 63.88 39.92 61.44 41.54 61.44 41.54 63.88 41.54 63.88"/><polygon class="cls-1" points="38.67 63.88 37.03 63.88 37.03 61.44 38.67 61.44 38.67 63.88 38.67 63.88"/><polygon class="cls-1" points="35.78 63.88 34.47 63.88 34.47 61.44 35.78 61.44 35.78 63.88 35.78 63.88"/><path class="cls-1" d="M54.38,58.76h-8.6V58h8.6v.79Zm0-1.46h-8.6v-.79h8.6v.79Z"/><path class="cls-1" d="M61.81,58.79H56.16V58h5.64v.8Zm0-1.51H56.16v-.79h5.64v.79Z"/><path class="cls-1" d="M66.83,58.79H63.55V58h3.28v.8Zm0-1.51H63.55v-.8h3.28v.8Z"/><path class="cls-1" d="M36.51,58.79H33.23V58h3.28v.8Zm0-1.51H33.23v-.8h3.28v.8Z"/><path class="cls-1" d="M51.52,39.14a46.82,46.82,0,0,1,2.8,15.11c0,.46,0,.93,0,1.39v.09H45.78v-.09c0-.49,0-.93,0-1.38a47.22,47.22,0,0,1,2.72-15.12Z"/><path class="cls-1" d="M55.1,39.14A26.77,26.77,0,0,1,61.71,55.6v.13H56.13v-.1c0-.29,0-.58,0-.84a34.48,34.48,0,0,0-3.54-15.66Z"/><path class="cls-1" d="M57.85,39.14a23.24,23.24,0,0,1,9,16.49v.1H63.55v-.09a24.18,24.18,0,0,0-7.71-16.5Z"/><rect class="cls-1" x="30.82" y="64.88" width="38.43" height="0.9"/><rect class="cls-1" x="30.82" y="59.54" width="38.43" height="0.9"/><rect class="cls-1" x="44.68" y="34.33" width="1.61" height="1.84"/><rect class="cls-1" x="46.86" y="34.33" width="1.64" height="1.84"/><rect class="cls-1" x="53.8" y="34.33" width="1.54" height="1.84"/><rect class="cls-1" x="49.14" y="34.33" width="1.66" height="1.84"/><path class="cls-1" d="M48.19,33.61h3.62V31.84A1.81,1.81,0,0,0,48.2,32Z"/><path class="cls-1" d="M53.24,32.76a1,1,0,0,1,1-1,1.06,1.06,0,0,1,1.05,1.07v.81h-2.1Z"/><path class="cls-1" d="M44.68,32.76a1,1,0,0,1,1-1,1.06,1.06,0,0,1,1.05,1.07v.81h-2.1Z"/><path class="cls-1" d="M51.07,37.32l-.16-.52H49.06l-.13.51Z"/><path class="cls-1" d="M51.38,38.42l-.16-.52H48.8l-.16.52Z"/><path class="cls-1" d="M53.74,37.32l-.49-.52H51.61l.25.52Z"/><path class="cls-1" d="M54.67,38.42l-.48-.52H52.1l.26.52Z"/><path class="cls-1" d="M56.08,37.32l-.62-.52H53.94l.51.52Z"/><path class="cls-1" d="M55.4,38.42l-.5-.52h1.76l.63.52Z"/><path class="cls-1" d="M44.23,39.14a24.18,24.18,0,0,0-7.71,16.5v.09H33.23v-.1a23.24,23.24,0,0,1,9-16.49Z"/><path class="cls-1" d="M44,58.79H38.35V58H44v.8Zm0-1.51H38.35v-.79H44v.79Z"/><path class="cls-1" d="M47.47,39.14a34.48,34.48,0,0,0-3.54,15.66c0,.26,0,.55,0,.84v.1H38.35V55.6A26.77,26.77,0,0,1,45,39.14Z"/><path class="cls-1" d="M47.71,38.42,48,37.9H45.88l-.48.52Z"/><path class="cls-1" d="M48.2,37.32l.25-.52H46.77s-.16.21-.45.52Z"/><path class="cls-1" d="M44.67,38.42l.5-.52H43.41l-.63.52Z"/><path class="cls-1" d="M45.62,37.32l.5-.52H44.6l-.61.52Z"/></g></g></svg>