<?xml version="1.0" standalone="no"?>
<!DOCTYPE svg PUBLIC "-//W3C//DTD SVG 20010904//EN"
 "http://www.w3.org/TR/2001/REC-SVG-20010904/DTD/svg10.dtd">
<svg version="1.0" xmlns="http://www.w3.org/2000/svg"
 width="189.000000pt" height="189.000000pt" viewBox="0 0 189.000000 189.000000"
 preserveAspectRatio="xMidYMid meet">
<metadata>
Created by potrace 1.11, written by Peter Selinger 2001-2013
</metadata>
<g transform="translate(0.000000,189.000000) scale(0.100000,-0.100000)"
fill="#000000" stroke="none">
<path d="M1225 1833 c-44 -25 -99 -56 -122 -69 -24 -13 -79 -44 -123 -69 l-79
-45 -441 0 -440 0 2 -697 3 -698 195 2 c107 1 209 2 225 2 27 1 33 7 44 39 8
20 22 55 33 77 11 22 26 57 33 78 l14 37 -152 0 -152 0 1 448 c1 246 2 449 3
452 0 3 177 5 392 5 215 0 394 2 399 5 5 3 57 100 115 215 59 116 114 221 122
233 8 13 13 25 11 27 -2 2 -39 -17 -83 -42z"/>
<path d="M1388 1582 c-11 -26 -34 -76 -49 -111 -16 -35 -27 -66 -24 -69 2 -3
70 -4 150 -3 l145 2 0 -68 c1 -37 1 -241 1 -453 l0 -385 -398 -3 -399 -2 -94
-183 c-51 -100 -106 -205 -121 -234 -16 -29 -29 -55 -29 -58 0 -8 58 23 246
130 l165 94 427 0 c235 0 432 0 438 0 8 1 11 200 11 696 l1 695 -225 0 -225
-1 -20 -47z"/>
</g>
</svg>
