<svg xmlns="http://www.w3.org/2000/svg" viewBox="0 0 240.61 187.18"><defs><style>.cls-1{fill:#172b53;}.cls-2{fill:#9ca73a;}</style></defs><title>Parla_quadrado</title><g id="Camada_2" data-name="Camada 2"><g id="Camada_1-2" data-name="Camada 1"><path class="cls-1" d="M40.89,154.63a14.53,14.53,0,0,1-9.14,8.51,10.7,10.7,0,0,1-3.62.71,15.39,15.39,0,0,1-9.21-2.92v-.79a10.42,10.42,0,0,0,8.77-3.86,13.44,13.44,0,0,0,3-9.07q0-8.59-5.51-11.11a9.2,9.2,0,0,0-3.84-.79H16.46v46.12a4.92,4.92,0,0,0,1.38,3.51,4.34,4.34,0,0,0,3.26,1.46H22v.79H0v-.79H.94a4.23,4.23,0,0,0,3.23-1.46,5.29,5.29,0,0,0,1.41-3.51V137.36a4.89,4.89,0,0,0-2.46-3.94,4.06,4.06,0,0,0-2.18-.63H0V132H24.22q13.12,0,16.82,9.07a19.28,19.28,0,0,1-.14,13.56Z"/><path class="cls-1" d="M89.68,186.4h.65v.79H67.2v-.79h.65a2.7,2.7,0,0,0,2.36-1.06,3.51,3.51,0,0,0,.76-2,5.27,5.27,0,0,0-.36-1.89l-3.55-9.7h-17l-3.77,9.7a5.79,5.79,0,0,0-.36,1.93,3.47,3.47,0,0,0,.76,2,2.78,2.78,0,0,0,2.43,1.06h.58v.79H34.21v-.79h.65a6,6,0,0,0,3.33-1.1A8.16,8.16,0,0,0,41,182L57.7,140.75q3.41-7.8,3.63-10.33H62l21.54,51.4a8.39,8.39,0,0,0,2.76,3.43A6,6,0,0,0,89.68,186.4Zm-38.36-18h14.5l-7-19.39Z"/><path class="cls-1" d="M112.68,135.47h-3.34v46a4.93,4.93,0,0,0,2.32,4.34,4.54,4.54,0,0,0,2.32.63h.94v.79h-22v-.79h.94a4.35,4.35,0,0,0,4-2.44,5.86,5.86,0,0,0,.65-2.44V137.76a5.3,5.3,0,0,0-1.41-3.51,4.23,4.23,0,0,0-3.23-1.46h-.94V132h24.87a20.62,20.62,0,0,1,11.89,3.31,11.55,11.55,0,0,1,3.92,4.61,15,15,0,0,1,1.45,6.7,19.29,19.29,0,0,1-1.2,6.9,13.43,13.43,0,0,1-4,5.52,12.43,12.43,0,0,1-6.71,2.84q4.2,1.5,7.4,6.94,7.83,13.64,11.6,16.24a8.74,8.74,0,0,0,4.71,1.34v.79h-7.11a25.19,25.19,0,0,1-10.3-1.85,14.81,14.81,0,0,1-6.74-6.35q-1.3-2.29-3.34-6.9t-2.68-6.58q-2-4.73-4.93-5.28v-.79H114a8.64,8.64,0,0,0,5.77-2.13q2.5-2.13,3.37-6.94a16.14,16.14,0,0,0,.29-2.6q0-6.46-2.39-9.34a7.88,7.88,0,0,0-6.16-3Z"/><path class="cls-1" d="M147.7,186.4a4.23,4.23,0,0,0,3.23-1.46,5.29,5.29,0,0,0,1.41-3.51V137.76a5.3,5.3,0,0,0-1.41-3.51,4.24,4.24,0,0,0-3.23-1.46h-.94V132h22l-.07.79h-.87a4.34,4.34,0,0,0-3.26,1.46,4.93,4.93,0,0,0-1.38,3.51v46h9.5a12.61,12.61,0,0,0,8.88-3.31,19.87,19.87,0,0,0,5.33-9.38h.73l-3.34,16.08H146.76v-.79Z"/><path class="cls-1" d="M240,186.4h.65v.79H217.48v-.79h.65a2.7,2.7,0,0,0,2.36-1.06,3.51,3.51,0,0,0,.76-2,5.27,5.27,0,0,0-.36-1.89l-3.55-9.7h-17l-3.77,9.7a5.79,5.79,0,0,0-.36,1.93,3.47,3.47,0,0,0,.76,2,2.78,2.78,0,0,0,2.43,1.06H200v.79H184.49v-.79h.65a6,6,0,0,0,3.33-1.1,8.16,8.16,0,0,0,2.76-3.31L208,140.75q3.41-7.8,3.63-10.33h.65l21.54,51.4a8.39,8.39,0,0,0,2.76,3.43A6,6,0,0,0,240,186.4Zm-38.36-18h14.5l-7-19.39Z"/><polyline class="cls-1" points="85.21 104.28 91.61 89.55 71.95 89.55 71.95 31.06 123.34 31.06 139.31 0 112.86 14.96 56.37 14.96 56.37 104.44 85.21 104.28"/><polyline class="cls-2" points="145.59 16.29 139.19 31.02 158.85 31.02 158.85 89.51 107.46 89.51 91.49 120.57 117.95 105.61 174.43 105.61 174.43 16.13 145.59 16.29"/><polygon class="cls-1" points="138.71 77.53 137.55 77.53 137.55 74.57 138.71 74.57 138.71 77.53 138.71 77.53"/><polygon class="cls-1" points="96.7 77.53 95.56 77.53 95.56 74.57 96.7 74.57 96.7 77.53 96.7 77.53"/><rect class="cls-1" x="118.78" y="41.66" width="2.09" height="2.23"/><rect class="cls-1" x="93.77" y="80.75" width="46.64" height="1.09"/><polygon class="cls-1" points="136.04 77.53 134.46 77.53 134.46 74.57 136.04 74.57 136.04 77.53 136.04 77.53"/><polygon class="cls-1" points="132.94 77.53 130.94 77.53 130.94 74.57 132.94 74.57 132.94 77.53 132.94 77.53"/><polygon class="cls-1" points="129.43 77.53 127.47 77.53 127.47 74.57 129.43 74.57 129.43 77.53 129.43 77.53"/><polygon class="cls-1" points="125.95 77.53 123.78 77.53 123.78 74.57 125.95 74.57 125.95 77.53 125.95 77.53"/><polygon class="cls-1" points="122.27 77.53 119.94 77.53 119.94 74.57 122.27 74.57 122.27 77.53 122.27 77.53"/><polygon class="cls-1" points="118.43 77.53 115.8 77.53 115.8 74.57 118.43 74.57 118.43 77.53 118.43 77.53"/><polygon class="cls-1" points="114.29 77.53 111.97 77.53 111.97 74.57 114.29 74.57 114.29 77.53 114.29 77.53"/><polygon class="cls-1" points="110.45 77.53 108.31 77.53 108.31 74.57 110.45 74.57 110.45 77.53 110.45 77.53"/><polygon class="cls-1" points="106.8 77.53 104.82 77.53 104.82 74.57 106.8 74.57 106.8 77.53 106.8 77.53"/><polygon class="cls-1" points="103.31 77.53 101.31 77.53 101.31 74.57 103.31 74.57 103.31 77.53 103.31 77.53"/><polygon class="cls-1" points="99.8 77.53 98.22 77.53 98.22 74.57 99.8 74.57 99.8 77.53 99.8 77.53"/><path class="cls-1" d="M122.38,71.32H111.94v-1h10.43v1Zm0-1.77H111.94v-1h10.43v1Z"/><path class="cls-1" d="M131.39,71.35h-6.85v-1h6.85v1Zm0-1.83h-6.85v-1h6.85v1Z"/><path class="cls-1" d="M137.49,71.35h-4v-1h4v1Zm0-1.83h-4v-1h4v1Z"/><path class="cls-1" d="M100.69,71.35h-4v-1h4v1Zm0-1.83h-4v-1h4v1Z"/><path class="cls-1" d="M118.9,47.5a56.82,56.82,0,0,1,3.4,18.34c0,.56,0,1.13,0,1.69v.11H111.93v-.11c0-.6,0-1.13,0-1.67a57.31,57.31,0,0,1,3.3-18.35Z"/><path class="cls-1" d="M123.24,47.5a32.49,32.49,0,0,1,8,20v.16h-6.79v-.12c0-.35,0-.7,0-1a41.85,41.85,0,0,0-4.3-19Z"/><path class="cls-1" d="M126.59,47.5a28.2,28.2,0,0,1,10.89,20v.13h-4v-.11a29.35,29.35,0,0,0-9.36-20Z"/><rect class="cls-1" x="93.77" y="78.74" width="46.64" height="1.09"/><rect class="cls-1" x="93.77" y="72.27" width="46.64" height="1.09"/><rect class="cls-1" x="110.6" y="41.66" width="1.96" height="2.23"/><rect class="cls-1" x="113.25" y="41.66" width="1.99" height="2.23"/><rect class="cls-1" x="121.67" y="41.66" width="1.87" height="2.23"/><rect class="cls-1" x="116.02" y="41.66" width="2.02" height="2.23"/><path class="cls-1" d="M114.86,40.79h4.39V38.65a2.19,2.19,0,0,0-4.38.2Z"/><path class="cls-1" d="M121,39.76a1.25,1.25,0,0,1,1.27-1.26,1.29,1.29,0,0,1,1.28,1.3v1H121Z"/><path class="cls-1" d="M110.6,39.76a1.25,1.25,0,0,1,1.27-1.26,1.29,1.29,0,0,1,1.28,1.3v1H110.6Z"/><path class="cls-1" d="M118.36,45.29l-.19-.63h-2.25l-.16.62Z"/><path class="cls-1" d="M118.73,46.63l-.19-.63H115.6l-.19.63Z"/><path class="cls-1" d="M121.6,45.29l-.6-.63h-2l.31.63Z"/><path class="cls-1" d="M122.73,46.63l-.58-.63h-2.54l.31.63Z"/><path class="cls-1" d="M124.44,45.29l-.75-.63h-1.85l.61.63Z"/><path class="cls-1" d="M123.61,46.63,123,46h2.13l.77.63Z"/><path class="cls-1" d="M110.06,47.5a29.35,29.35,0,0,0-9.36,20v.11h-4v-.13a28.2,28.2,0,0,1,10.89-20Z"/><path class="cls-1" d="M109.77,71.35h-6.85v-1h6.85v1Zm0-1.83h-6.85v-1h6.85v1Z"/><path class="cls-1" d="M114,47.5a41.85,41.85,0,0,0-4.3,19c0,.32,0,.67,0,1v.12h-6.79v-.16a32.49,32.49,0,0,1,8-20Z"/><path class="cls-1" d="M114.28,46.63l.31-.63h-2.54l-.58.63Z"/><path class="cls-1" d="M114.88,45.29l.31-.63h-2s-.19.25-.54.63Z"/><path class="cls-1" d="M110.59,46.63l.6-.63h-2.13l-.76.63Z"/><path class="cls-1" d="M111.74,45.29l.61-.63h-1.85l-.75.63Z"/></g></g></svg>