<svg xmlns="http://www.w3.org/2000/svg" viewBox="0 0 113.41 115.82"><defs><style>.cls-1{fill:#172b53;}.cls-2{fill:#9ca73a;}</style></defs><title>Parla_icone</title><g id="Camada_2" data-name="Camada 2"><g id="Camada_1-2" data-name="Camada 1"><polyline class="cls-1" points="27.7 100.18 33.85 86.02 14.97 86.02 14.97 29.84 64.33 29.84 79.67 0 54.26 14.37 0 14.37 0 100.32 27.7 100.18"/><polyline class="cls-2" points="85.7 15.64 79.56 29.8 98.44 29.8 98.44 85.99 49.08 85.99 33.73 115.82 59.15 101.45 113.41 101.45 113.41 15.5 85.7 15.64"/><polygon class="cls-1" points="79.09 74.47 77.98 74.47 77.98 71.63 79.09 71.63 79.09 74.47 79.09 74.47"/><polygon class="cls-1" points="38.74 74.47 37.64 74.47 37.64 71.63 38.74 71.63 38.74 74.47 38.74 74.47"/><rect class="cls-1" x="59.95" y="40.02" width="2.01" height="2.14"/><rect class="cls-1" x="35.93" y="77.57" width="44.8" height="1.05"/><polygon class="cls-1" points="76.53 74.47 75.01 74.47 75.01 71.63 76.53 71.63 76.53 74.47 76.53 74.47"/><polygon class="cls-1" points="73.55 74.47 71.63 74.47 71.63 71.63 73.55 71.63 73.55 74.47 73.55 74.47"/><polygon class="cls-1" points="70.18 74.47 68.29 74.47 68.29 71.63 70.18 71.63 70.18 74.47 70.18 74.47"/><polygon class="cls-1" points="66.84 74.47 64.75 74.47 64.75 71.63 66.84 71.63 66.84 74.47 66.84 74.47"/><polygon class="cls-1" points="63.3 74.47 61.06 74.47 61.06 71.63 63.3 71.63 63.3 74.47 63.3 74.47"/><polygon class="cls-1" points="59.61 74.47 57.09 74.47 57.09 71.63 59.61 71.63 59.61 74.47 59.61 74.47"/><polygon class="cls-1" points="55.64 74.47 53.4 74.47 53.4 71.63 55.64 71.63 55.64 74.47 55.64 74.47"/><polygon class="cls-1" points="51.95 74.47 49.89 74.47 49.89 71.63 51.95 71.63 51.95 74.47 51.95 74.47"/><polygon class="cls-1" points="48.44 74.47 46.54 74.47 46.54 71.63 48.44 71.63 48.44 74.47 48.44 74.47"/><polygon class="cls-1" points="45.09 74.47 43.17 74.47 43.17 71.63 45.09 71.63 45.09 74.47 45.09 74.47"/><polygon class="cls-1" points="41.72 74.47 40.19 74.47 40.19 71.63 41.72 71.63 41.72 74.47 41.72 74.47"/><path class="cls-1" d="M63.4,68.51h-10v-.92h10v.92Zm0-1.7h-10v-.92h10v.92Z"/><path class="cls-1" d="M72.06,68.54H65.48v-.93h6.58v.93Zm0-1.76H65.48v-.93h6.58v.93Z"/><path class="cls-1" d="M77.92,68.54H74.09v-.93h3.82v.93Zm0-1.76H74.09v-.93h3.82v.93Z"/><path class="cls-1" d="M42.57,68.54H38.74v-.93h3.83v.93Zm0-1.76H38.74v-.93h3.83v.93Z"/><path class="cls-1" d="M60.07,45.63a54.58,54.58,0,0,1,3.27,17.62c0,.54,0,1.08,0,1.62V65H53.37v-.11c0-.57,0-1.09,0-1.61a55,55,0,0,1,3.17-17.62Z"/><path class="cls-1" d="M64.24,45.63A31.21,31.21,0,0,1,72,64.82V65H65.44v-.11c0-.33,0-.67,0-1a40.2,40.2,0,0,0-4.13-18.25Z"/><path class="cls-1" d="M67.45,45.63A27.09,27.09,0,0,1,77.91,64.85V65H74.09v-.11a28.19,28.19,0,0,0-9-19.24Z"/><rect class="cls-1" x="35.93" y="75.64" width="44.8" height="1.05"/><rect class="cls-1" x="35.93" y="69.42" width="44.8" height="1.05"/><rect class="cls-1" x="52.09" y="40.02" width="1.88" height="2.14"/><rect class="cls-1" x="54.64" y="40.02" width="1.91" height="2.14"/><rect class="cls-1" x="62.72" y="40.02" width="1.8" height="2.14"/><rect class="cls-1" x="57.3" y="40.02" width="1.94" height="2.14"/><path class="cls-1" d="M56.18,39.18H60.4V37.12a2.11,2.11,0,0,0-4.21.19Z"/><path class="cls-1" d="M62.07,38.2A1.2,1.2,0,0,1,63.3,37a1.24,1.24,0,0,1,1.23,1.25v.94H62.07Z"/><path class="cls-1" d="M52.09,38.2A1.2,1.2,0,0,1,53.32,37a1.24,1.24,0,0,1,1.23,1.25v.94H52.09Z"/><path class="cls-1" d="M59.54,43.51l-.19-.6H57.2l-.15.6Z"/><path class="cls-1" d="M59.9,44.79l-.19-.61H56.89l-.19.61Z"/><path class="cls-1" d="M62.66,43.51l-.57-.6H60.17l.3.6Z"/><path class="cls-1" d="M63.74,44.79l-.56-.61H60.74l.3.61Z"/><path class="cls-1" d="M65.38,43.51l-.72-.6H62.89l.59.6Z"/><path class="cls-1" d="M64.59,44.79,64,44.18h2l.74.61Z"/><path class="cls-1" d="M51.57,45.63a28.19,28.19,0,0,0-9,19.24V65H38.74v-.12A27.09,27.09,0,0,1,49.21,45.63Z"/><path class="cls-1" d="M51.29,68.54H44.71v-.93h6.58v.93Zm0-1.76H44.71v-.93h6.58v.93Z"/><path class="cls-1" d="M55.35,45.63a40.2,40.2,0,0,0-4.13,18.25c0,.3,0,.64,0,1V65H44.71v-.15a31.21,31.21,0,0,1,7.71-19.19Z"/><path class="cls-1" d="M55.62,44.79l.3-.61H53.49l-.56.61Z"/><path class="cls-1" d="M56.2,43.51l.3-.6h-2s-.19.24-.52.6Z"/><path class="cls-1" d="M52.08,44.79l.58-.61h-2l-.73.61Z"/><path class="cls-1" d="M53.19,43.51l.59-.6H52l-.72.6Z"/></g></g></svg>